<mxfile host="app.diagrams.net" modified="2021-03-06T04:56:50.232Z" agent="5.0 (Macintosh; Intel Mac OS X 10_15_7) AppleWebKit/605.1.15 (KHTML, like Gecko) Version/14.0.1 Safari/605.1.15" etag="VxTkmUzb3HlFokmon8JQ" version="14.4.4" type="github">
  <diagram id="FdI_XrB2HgPGZct2m1sK" name="Page-1">
    <mxGraphModel dx="1147" dy="789" grid="1" gridSize="10" guides="1" tooltips="1" connect="1" arrows="1" fold="1" page="1" pageScale="1" pageWidth="827" pageHeight="1169" math="0" shadow="0">
      <root>
        <mxCell id="0" />
        <mxCell id="1" parent="0" />
        <mxCell id="m2hTGwMS5qshrW-JIJZL-1" value="" style="whiteSpace=wrap;html=1;aspect=fixed;" vertex="1" parent="1">
          <mxGeometry x="140" y="115" width="480" height="480" as="geometry" />
        </mxCell>
        <mxCell id="m2hTGwMS5qshrW-JIJZL-3" value="" style="whiteSpace=wrap;html=1;aspect=fixed;" vertex="1" parent="1">
          <mxGeometry x="190" y="160" width="100" height="100" as="geometry" />
        </mxCell>
        <mxCell id="m2hTGwMS5qshrW-JIJZL-6" value="" style="whiteSpace=wrap;html=1;aspect=fixed;" vertex="1" parent="1">
          <mxGeometry x="330" y="300" width="100" height="100" as="geometry" />
        </mxCell>
        <mxCell id="m2hTGwMS5qshrW-JIJZL-7" value="" style="whiteSpace=wrap;html=1;aspect=fixed;" vertex="1" parent="1">
          <mxGeometry x="480" y="160" width="100" height="100" as="geometry" />
        </mxCell>
        <mxCell id="m2hTGwMS5qshrW-JIJZL-8" value="" style="whiteSpace=wrap;html=1;aspect=fixed;" vertex="1" parent="1">
          <mxGeometry x="330" y="160" width="100" height="100" as="geometry" />
        </mxCell>
        <mxCell id="m2hTGwMS5qshrW-JIJZL-9" value="" style="whiteSpace=wrap;html=1;aspect=fixed;" vertex="1" parent="1">
          <mxGeometry x="190" y="300" width="100" height="100" as="geometry" />
        </mxCell>
        <mxCell id="m2hTGwMS5qshrW-JIJZL-12" value="" style="whiteSpace=wrap;html=1;aspect=fixed;" vertex="1" parent="1">
          <mxGeometry x="480" y="450" width="100" height="100" as="geometry" />
        </mxCell>
        <mxCell id="m2hTGwMS5qshrW-JIJZL-13" value="" style="whiteSpace=wrap;html=1;aspect=fixed;" vertex="1" parent="1">
          <mxGeometry x="330" y="450" width="100" height="100" as="geometry" />
        </mxCell>
        <mxCell id="m2hTGwMS5qshrW-JIJZL-14" value="" style="whiteSpace=wrap;html=1;aspect=fixed;" vertex="1" parent="1">
          <mxGeometry x="190" y="450" width="100" height="100" as="geometry" />
        </mxCell>
        <mxCell id="m2hTGwMS5qshrW-JIJZL-15" value="" style="whiteSpace=wrap;html=1;aspect=fixed;" vertex="1" parent="1">
          <mxGeometry x="480" y="300" width="100" height="100" as="geometry" />
        </mxCell>
        <mxCell id="m2hTGwMS5qshrW-JIJZL-16" value="exportW" style="endArrow=classic;startArrow=classic;html=1;" edge="1" parent="1">
          <mxGeometry width="50" height="50" relative="1" as="geometry">
            <mxPoint x="140" y="100" as="sourcePoint" />
            <mxPoint x="620" y="100" as="targetPoint" />
          </mxGeometry>
        </mxCell>
        <mxCell id="m2hTGwMS5qshrW-JIJZL-17" value="" style="endArrow=classic;startArrow=classic;html=1;" edge="1" parent="1">
          <mxGeometry width="50" height="50" relative="1" as="geometry">
            <mxPoint x="120" y="595" as="sourcePoint" />
            <mxPoint x="120" y="115" as="targetPoint" />
          </mxGeometry>
        </mxCell>
        <mxCell id="m2hTGwMS5qshrW-JIJZL-18" value="" style="edgeLabel;html=1;align=center;verticalAlign=middle;resizable=0;points=[];" vertex="1" connectable="0" parent="m2hTGwMS5qshrW-JIJZL-17">
          <mxGeometry x="0.2833" y="4" relative="1" as="geometry">
            <mxPoint as="offset" />
          </mxGeometry>
        </mxCell>
        <mxCell id="m2hTGwMS5qshrW-JIJZL-19" value="exportH&lt;br&gt;" style="edgeLabel;html=1;align=center;verticalAlign=middle;resizable=0;points=[];" vertex="1" connectable="0" parent="m2hTGwMS5qshrW-JIJZL-17">
          <mxGeometry x="0.1208" y="-1" relative="1" as="geometry">
            <mxPoint as="offset" />
          </mxGeometry>
        </mxCell>
        <mxCell id="m2hTGwMS5qshrW-JIJZL-27" value="bitmap1" style="text;html=1;strokeColor=none;fillColor=none;align=center;verticalAlign=middle;whiteSpace=wrap;rounded=0;" vertex="1" parent="1">
          <mxGeometry x="220" y="200" width="40" height="20" as="geometry" />
        </mxCell>
        <mxCell id="m2hTGwMS5qshrW-JIJZL-30" value="bitmap3" style="text;html=1;strokeColor=none;fillColor=none;align=center;verticalAlign=middle;whiteSpace=wrap;rounded=0;" vertex="1" parent="1">
          <mxGeometry x="510" y="200" width="40" height="20" as="geometry" />
        </mxCell>
        <mxCell id="m2hTGwMS5qshrW-JIJZL-31" value="bitmap2" style="text;html=1;strokeColor=none;fillColor=none;align=center;verticalAlign=middle;whiteSpace=wrap;rounded=0;" vertex="1" parent="1">
          <mxGeometry x="360" y="200" width="40" height="20" as="geometry" />
        </mxCell>
        <mxCell id="m2hTGwMS5qshrW-JIJZL-32" value="bitmap4" style="text;html=1;strokeColor=none;fillColor=none;align=center;verticalAlign=middle;whiteSpace=wrap;rounded=0;" vertex="1" parent="1">
          <mxGeometry x="220" y="340" width="40" height="20" as="geometry" />
        </mxCell>
        <mxCell id="m2hTGwMS5qshrW-JIJZL-33" value="bitmap5" style="text;html=1;strokeColor=none;fillColor=none;align=center;verticalAlign=middle;whiteSpace=wrap;rounded=0;" vertex="1" parent="1">
          <mxGeometry x="360" y="340" width="40" height="20" as="geometry" />
        </mxCell>
        <mxCell id="m2hTGwMS5qshrW-JIJZL-34" value="bitmap6" style="text;html=1;strokeColor=none;fillColor=none;align=center;verticalAlign=middle;whiteSpace=wrap;rounded=0;" vertex="1" parent="1">
          <mxGeometry x="510" y="340" width="40" height="20" as="geometry" />
        </mxCell>
        <mxCell id="m2hTGwMS5qshrW-JIJZL-35" value="bitmap7" style="text;html=1;strokeColor=none;fillColor=none;align=center;verticalAlign=middle;whiteSpace=wrap;rounded=0;" vertex="1" parent="1">
          <mxGeometry x="220" y="490" width="40" height="20" as="geometry" />
        </mxCell>
        <mxCell id="m2hTGwMS5qshrW-JIJZL-36" value="bitmap8" style="text;html=1;strokeColor=none;fillColor=none;align=center;verticalAlign=middle;whiteSpace=wrap;rounded=0;" vertex="1" parent="1">
          <mxGeometry x="360" y="490" width="40" height="20" as="geometry" />
        </mxCell>
        <mxCell id="m2hTGwMS5qshrW-JIJZL-37" value="bitmap9" style="text;html=1;strokeColor=none;fillColor=none;align=center;verticalAlign=middle;whiteSpace=wrap;rounded=0;" vertex="1" parent="1">
          <mxGeometry x="510" y="490" width="40" height="20" as="geometry" />
        </mxCell>
        <mxCell id="m2hTGwMS5qshrW-JIJZL-39" value="bp1W" style="endArrow=classic;startArrow=classic;html=1;entryX=0.313;entryY=0.073;entryDx=0;entryDy=0;entryPerimeter=0;" edge="1" parent="1" target="m2hTGwMS5qshrW-JIJZL-1">
          <mxGeometry width="50" height="50" relative="1" as="geometry">
            <mxPoint x="190" y="150" as="sourcePoint" />
            <mxPoint x="250" y="100" as="targetPoint" />
          </mxGeometry>
        </mxCell>
        <mxCell id="m2hTGwMS5qshrW-JIJZL-42" value="" style="endArrow=classic;startArrow=classic;html=1;exitX=0.083;exitY=0.302;exitDx=0;exitDy=0;exitPerimeter=0;" edge="1" parent="1" source="m2hTGwMS5qshrW-JIJZL-1">
          <mxGeometry width="50" height="50" relative="1" as="geometry">
            <mxPoint x="150" y="250" as="sourcePoint" />
            <mxPoint x="180" y="160" as="targetPoint" />
          </mxGeometry>
        </mxCell>
        <mxCell id="m2hTGwMS5qshrW-JIJZL-43" value="bp1H&lt;br&gt;" style="edgeLabel;html=1;align=center;verticalAlign=middle;resizable=0;points=[];" vertex="1" connectable="0" parent="m2hTGwMS5qshrW-JIJZL-42">
          <mxGeometry x="-0.0404" y="1" relative="1" as="geometry">
            <mxPoint as="offset" />
          </mxGeometry>
        </mxCell>
        <mxCell id="m2hTGwMS5qshrW-JIJZL-44" value="" style="ellipse;whiteSpace=wrap;html=1;aspect=fixed;" vertex="1" parent="1">
          <mxGeometry x="180" y="150" width="10" height="10" as="geometry" />
        </mxCell>
        <mxCell id="m2hTGwMS5qshrW-JIJZL-45" value="(bp1_left,bp1_top)" style="text;html=1;strokeColor=none;fillColor=none;align=center;verticalAlign=middle;whiteSpace=wrap;rounded=0;" vertex="1" parent="1">
          <mxGeometry x="110" y="120" width="180" height="20" as="geometry" />
        </mxCell>
      </root>
    </mxGraphModel>
  </diagram>
</mxfile>
